<svg width="25" height="25" viewBox="0 0 25 25" fill="none" xmlns="http://www.w3.org/2000/svg">
<path d="M7.55954 12.602C8.59683 14.7227 10.3158 16.4339 12.4412 17.4615C12.5967 17.5352 12.7687 17.5671 12.9403 17.5541C13.1119 17.5412 13.2771 17.4837 13.4198 17.3875L16.5492 15.3007C16.6877 15.2084 16.8469 15.1521 17.0126 15.1369C17.1782 15.1217 17.3451 15.148 17.498 15.2135L23.3526 17.7227C23.5515 17.8071 23.7175 17.954 23.8257 18.141C23.9339 18.3281 23.9783 18.5452 23.9524 18.7597C23.7673 20.2078 23.0608 21.5387 21.9652 22.5033C20.8695 23.4679 19.4598 24 18 24.0001C13.4913 24.0001 9.1673 22.2091 5.97919 19.0209C2.79107 15.8328 1 11.5088 1 7.00012C1.00008 5.54034 1.53224 4.13064 2.49685 3.03497C3.46146 1.9393 4.79237 1.2328 6.24037 1.04775C6.45489 1.02179 6.67204 1.06625 6.85909 1.17443C7.04614 1.2826 7.19298 1.44864 7.27746 1.64753L9.78877 7.50726C9.85373 7.65883 9.8802 7.82411 9.86582 7.98838C9.85144 8.15265 9.79666 8.31082 9.70636 8.44879L7.62681 11.6263C7.53216 11.7692 7.47621 11.9342 7.46442 12.1053C7.45263 12.2763 7.4854 12.4475 7.55954 12.602V12.602Z" stroke="white" stroke-width="2" stroke-linecap="round" stroke-linejoin="round"/>
</svg>
