<svg width="88" height="88" viewBox="0 0 88 88" fill="none" xmlns="http://www.w3.org/2000/svg">
<path d="M10.998 35.75H27.498V71.5H10.998C10.2687 71.5 9.56923 71.2103 9.0535 70.6945C8.53778 70.1788 8.24805 69.4793 8.24805 68.75V38.5C8.24805 37.7707 8.53778 37.0712 9.0535 36.5555C9.56923 36.0397 10.2687 35.75 10.998 35.75V35.75Z" stroke="#4E3425" stroke-width="2" stroke-linecap="round" stroke-linejoin="round"/>
<path d="M27.498 35.75L41.248 8.25C42.6926 8.25 44.123 8.53452 45.4576 9.08733C46.7921 9.64013 48.0048 10.4504 49.0262 11.4718C50.0477 12.4933 50.8579 13.7059 51.4107 15.0405C51.9635 16.3751 52.248 17.8055 52.248 19.25V27.5H73.5177C74.2976 27.5 75.0686 27.6658 75.7794 27.9865C76.4903 28.3072 77.1249 28.7754 77.641 29.3601C78.1571 29.9447 78.543 30.6325 78.773 31.3776C79.0031 32.1228 79.072 32.9083 78.9753 33.6822L74.8503 66.6822C74.684 68.0124 74.0376 69.2361 73.0327 70.1232C72.0277 71.0104 70.7333 71.5 69.3927 71.5H27.498" stroke="#4E3425" stroke-width="2" stroke-linecap="round" stroke-linejoin="round"/>
</svg>
